Coordinates
version=1
nRows=11
nColumns=63
inDegrees=yes

Units are S.I. units (second, meters, Newtons, ...)
If the header above contains a line with 'inDegrees', this indicates whether rotational values are in degrees (yes) or radians (no).

endheader
time	pelvis_tilt	pelvis_list	pelvis_rotation	pelvis_tx	pelvis_ty	pelvis_tz	hip_flexion_r	hip_adduction_r	hip_rotation_r	knee_angle_r	knee_angle_r_beta	ankle_angle_r	subtalar_angle_r	mtp_angle_r	hip_flexion_l	hip_adduction_l	hip_rotation_l	knee_angle_l	knee_angle_l_beta	ankle_angle_l	subtalar_angle_l	mtp_angle_l	L5_S1_Flex_Ext	L5_S1_Lat_Bending	L5_S1_axial_rotation	L4_L5_Flex_Ext	L4_L5_Lat_Bending	L4_L5_axial_rotation	L3_L4_Flex_Ext	L3_L4_Lat_Bending	L3_L4_axial_rotation	L2_L3_Flex_Ext	L2_L3_Lat_Bending	L2_L3_axial_rotation	L1_L2_Flex_Ext	L1_L2_Lat_Bending	L1_L2_axial_rotation	L1_T12_Flex_Ext	L1_T12_Lat_Bending	L1_T12_axial_rotation	Abs_r3	Abs_r2	Abs_r1	Abs_t1	Abs_t2	neck_flexion	neck_bending	neck_rotation	arm_flex_r	arm_add_r	arm_rot_r	elbow_flex_r	pro_sup_r	wrist_flex_r	wrist_dev_r	arm_flex_l	arm_add_l	arm_rot_l	elbow_flex_l	pro_sup_l	wrist_flex_l	wrist_dev_l
      1.30508475	     -0.93073210	      1.39617506	     95.16682974	      0.08735354	      0.92183671	      0.53189112	     -3.47348262	      3.34307790	      7.31242708	      6.79773043	      0.11864278	     23.49025851	     -9.55819250	      0.00000000	     -5.69650756	     -1.05610950	    -16.81989424	      4.38151357	      0.07647184	     30.88913506	     13.75010664	      0.00000000	      0.21872031	      0.15813933	      1.47570057	      0.40618549	      0.21032530	      1.56793185	      0.35933560	      0.38449996	      1.56793185	      0.24997545	      0.38449996	      1.29123800	      0.20310368	      0.32247771	      1.19900671	      0.12497679	      0.24495781	      1.10677542	      1.56229733	      1.78890368	      8.20740384	      0.00000000	      0.00000000	      0.23075818	     -0.52405154	     -0.35965488	     34.25529707	     -8.36390999	     26.47940706	    146.80840446	     89.40432329	     -9.07926584	     13.47735148	     34.15356242	     -7.03413719	     27.69164319	    146.20164031	     89.32621244	    -14.48324470	     -0.92577812
      1.32203390	     -1.05843590	      1.35799120	     95.03076218	      0.08794692	      0.92142872	      0.53233505	     -3.49089876	      3.20461422	      7.51351394	      6.63551556	      0.11581159	     23.55494434	     -9.44398621	      0.00000000	     -5.62391619	     -0.93492955	    -16.75911509	      4.43621981	      0.07742664	     31.23717027	     13.35774388	      0.00000000	      0.21378929	      0.12359413	      1.45215658	      0.39702810	      0.16438019	      1.54291637	      0.35123443	      0.30050677	      1.54291637	      0.24433978	      0.30050677	      1.27063701	      0.19852474	      0.25203315	      1.17987723	      0.12215920	      0.19144731	      1.08911744	      1.52707555	      1.39812152	      8.07645928	      0.00000000	      0.00000000	      0.78830251	     -0.13959572	     -0.08905604	     36.46431522	     -6.74477207	     27.99576290	    148.22661350	     89.37427729	     -8.08212144	     13.88277840	     36.46816280	     -5.76019291	     28.56328468	    146.86591551	     89.26751673	    -14.13684358	     -1.12557559
      1.33898305	     -1.15831936	      1.39119548	     94.87450676	      0.08824486	      0.92098024	      0.53270924	     -3.58981306	      3.07860183	      7.81663287	      6.49143801	      0.11329697	     23.62250347	     -9.42067238	      0.00000000	     -5.69400132	     -0.78261765	    -16.13509892	      4.33242834	      0.07561514	     31.42183588	     12.22637291	      0.00000000	      0.19163538	      0.11784979	      1.32100850	      0.35588606	      0.15674022	      1.40357153	      0.31483776	      0.28653998	      1.40357153	      0.21902007	      0.28653998	      1.15588244	      0.17795261	      0.24031929	      1.07331941	      0.10950045	      0.18254933	      0.99075637	      1.36883232	      1.33314041	      7.34705297	      0.00000000	      0.00000000	      0.92709654	      0.24321536	      2.22972003	     38.97247003	     -4.98410634	     29.95305076	    149.12705561	     89.33119358	     -6.74191448	     14.74312599	     38.11322637	     -4.84744272	     28.77760770	    147.68376225	     89.18370192	    -14.09758863	     -1.26313094
      1.35593220	     -1.13186521	      1.40696314	     94.59281906	      0.08841225	      0.92060782	      0.53307988	     -3.67726673	      3.05833920	      8.12542973	      6.30191506	      0.10998917	     23.62576029	     -9.32375376	      0.00000000	     -5.74456375	     -0.73669045	    -15.72588268	      4.25054951	      0.07418608	     31.47443483	     11.20000752	      0.00000000	      0.16031821	      0.13989561	      1.15611037	      0.29772695	      0.18606116	      1.22836727	      0.26338679	      0.34014219	      1.22836727	      0.18322769	      0.34014219	      1.01159658	      0.14887149	      0.28527513	      0.93933968	      0.09160583	      0.21669830	      0.86708278	      1.14513696	      1.58252713	      6.42993906	      0.00000000	      0.00000000	      0.78803595	      0.16868429	      4.94574896	     41.47442752	     -3.51363068	     32.82816791	    149.44312837	     89.27250556	     -7.34917558	     13.42969367	     38.94921342	     -4.13417041	     28.68810654	    148.43152376	     89.08211027	    -13.86374681	     -1.64956415
      1.37288136	     -1.10819544	      1.41305501	     94.26106883	      0.08850702	      0.92042654	      0.53349808	     -3.72844907	      3.01189452	      8.41859326	      6.17705546	      0.10780996	     23.61751580	     -9.09532680	      0.00000000	     -5.79342740	     -0.67173206	    -15.44056112	      4.16428574	      0.07268050	     31.33156324	     10.30782570	      0.00000000	      0.11847383	      0.16405456	      0.98791045	      0.22001775	      0.21819257	      1.04965485	      0.19464066	      0.39888226	      1.04965485	      0.13540374	      0.39888226	      0.86442164	      0.11001480	      0.33454006	      0.80267724	      0.06769595	      0.25412051	      0.74093284	      0.84624673	      1.85581800	      5.49446154	      0.00000000	      0.00000000	      0.37558657	     -0.14980366	      7.43361438	     43.55506115	     -2.23813293	     36.03867458	    149.57425217	     89.19710286	     -9.86165591	     11.71749329	     39.20155521	     -3.53438462	     28.47136776	    148.98466386	     88.95928458	    -13.60084937	     -2.51503472
      1.38983051	     -1.11583512	      1.44538882	     93.94579271	      0.08861376	      0.92050195	      0.53399319	     -3.76566819	      2.93299997	      8.52511327	      6.14476672	      0.10724641	     23.66079256	     -8.68399211	      0.00000000	     -5.85981414	     -0.59313104	    -15.52495391	      4.11190958	      0.07176636	     31.05158462	      9.99318135	      0.00000000	      0.06325812	      0.17605153	      0.85235801	      0.11747665	      0.23414853	      0.90563038	      0.10392676	      0.42805168	      0.90563038	      0.07229770	      0.42805168	      0.74581326	      0.05874149	      0.35900427	      0.69254088	      0.03614569	      0.27270382	      0.63926850	      0.45184640	      1.99153009	      4.74055952	      0.00000000	      0.00000000	     -0.14218244	     -0.52342079	      9.17127060	     45.01669244	     -1.13173504	     38.79569937	    149.62337184	     89.09349089	    -12.64446331	     10.16528005	     39.09446758	     -3.00721510	     28.34225614	    149.28943692	     88.83289391	    -13.41953889	     -3.57216063
      1.40677966	     -1.07810766	      1.49875322	     93.64846444	      0.08870152	      0.92070587	      0.53432277	     -3.81840236	      2.90220122	      8.59329929	      6.13265423	      0.10703501	     23.74203992	     -8.15281791	      0.00000000	     -5.94051009	     -0.58774571	    -16.03673065	      4.10519768	      0.07164922	     30.75823116	     10.31870558	      0.00000000	      0.00975110	      0.19144549	      0.75748777	      0.01810876	      0.25462250	      0.80483076	      0.01602008	      0.46548055	      0.80483076	      0.01114453	      0.46548055	      0.66280180	      0.00905487	      0.39039564	      0.61545882	      0.00557178	      0.29654906	      0.56811583	      0.06965112	      2.16566963	      4.21291975	      0.00000000	      0.00000000	     -0.87388557	     -0.87742231	     10.72492857	     45.79326483	     -0.15727156	     40.76654281	    149.64149379	     88.95875882	    -14.49272813	      9.74076262	     38.60215287	     -2.53312571	     28.13384128	    149.44566165	     88.73178788	    -13.15340845	     -4.89340342
      1.42372881	     -1.09657743	      1.58634086	     93.39394812	      0.08883519	      0.92093199	      0.53434225	     -3.93085644	      2.81800440	      8.51392765	      6.09010068	      0.10629231	     23.98719594	     -7.40032374	      0.00000000	     -6.07989193	     -0.54684099	    -16.79381527	      4.10605969	      0.07166426	     30.47584476	     11.12812270	      0.00000000	     -0.03096422	      0.19760079	      0.72324724	     -0.05750366	      0.26280905	      0.76845020	     -0.05087112	      0.48044656	      0.76845020	     -0.03538901	      0.48044656	      0.63284134	     -0.02875338	      0.40294753	      0.58763838	     -0.01769296	      0.30608363	      0.54243543	     -0.22117435	      2.23529967	      4.02248419	      0.00000000	      0.00000000	     -1.82415258	     -1.41645656	     11.65929154	     46.00996664	      0.57999859	     42.34977727	    149.63314004	     88.82302699	    -16.22032139	      9.89162895	     37.94580602	     -2.24324246	     27.99986447	    149.53475742	     88.68517139	    -12.86576689	     -6.16813687
      1.44067797	     -1.19509802	      1.68297100	     93.24639846	      0.08912208	      0.92102728	      0.53379768	     -4.14463838	      2.68619211	      8.65238204	      5.91087560	      0.10316424	     24.17916719	     -6.96558190	      0.00000000	     -6.29673569	     -0.41848368	    -17.09668758	      3.99026263	      0.06964322	     30.21228764	     11.50734320	      0.00000000	     -0.03659670	      0.18412333	      0.74391648	     -0.06796372	      0.24488403	      0.79041126	     -0.06012471	      0.44767746	      0.79041126	     -0.04182636	      0.44767746	      0.65092692	     -0.03398369	      0.37546429	      0.60443214	     -0.02091135	      0.28520704	      0.55793736	     -0.26140654	      2.08283993	      4.13744027	      0.00000000	      0.00000000	     -3.12634074	     -1.79125423	     11.80683020	     45.60299997	      1.05196556	     43.22689389	    149.62200034	     88.69580531	    -16.58655881	     10.20714905	     37.28416689	     -2.10239239	     28.09393463	    149.59051751	     88.71461682	    -12.56876111	     -7.03191513
      1.45762712	     -1.25473751	      1.78016596	     93.02897588	      0.08949924	      0.92108966	      0.53299631	     -4.35694127	      2.58930797	      8.72253765	      5.73816564	      0.10014988	     24.43133210	     -6.37613749	      0.00000000	     -6.54033527	     -0.32635281	    -17.51673320	      3.85653871	      0.06730930	     30.06036340	     11.99634790	      0.00000000	     -0.01791502	      0.18480100	      0.82649641	     -0.03326999	      0.24578533	      0.87815243	     -0.02943259	      0.44932516	      0.87815243	     -0.02047508	      0.44932516	      0.72318436	     -0.01663589	      0.37684620	      0.67152833	     -0.01023664	      0.28625675	      0.61987231	     -0.12796522	      2.09050589	      4.59672507	      0.00000000	      0.00000000	     -4.50591825	     -2.20998753	     12.07866687	     45.07358136	      1.34050560	     44.13924080	    149.60568755	     88.58994993	    -17.08124190	     10.75993262	     36.51029801	     -2.04170912	     28.18103960	    149.61077131	     88.77006250	    -11.97372297	     -8.39417552
      1.47457627	     -1.25860759	      1.89484232	     92.88979980	      0.08992010	      0.92113992	      0.53215884	     -4.54596255	      2.54522558	      8.04028965	      5.66855906	      0.09893502	     24.86720028	     -4.91131850	      0.00000000	     -6.72488953	     -0.35802951	    -18.46452586	      3.89593591	      0.06799691	     30.21853900	     13.19532763	      0.00000000	      0.00922716	      0.19245337	      0.92052470	      0.01713575	      0.25596299	      0.97805750	      0.01515929	      0.46793113	      0.97805750	      0.01054572	      0.46793113	      0.80545912	      0.00856834	      0.39245092	      0.74792632	      0.00527240	      0.29811027	      0.69039353	      0.06590865	      2.17707105	      5.11968225	      0.00000000	      0.00000000	     -5.83847531	     -2.57863464	     12.52466570	     44.55031364	      1.42611799	     45.05107003	    149.58087314	     88.47592029	    -17.80838034	     11.22028957	     35.68341741	     -1.91892421	     28.09510027	    149.62307547	     88.82657221	    -10.97176321	     -9.43043143
